<?xml version="1.0" encoding="UTF-8"?>
<!DOCTYPE svg PUBLIC "-//W3C//DTD SVG 1.0//EN" "http://www.w3.org/TR/2001/REC-SVG-20010904/DTD/svg10.dtd">
<!-- Creator: CorelDRAW X8 -->
<svg xmlns="http://www.w3.org/2000/svg" xml:space="preserve" width="512px" height="512px" version="1.0" style="shape-rendering:geometricPrecision; text-rendering:geometricPrecision; image-rendering:optimizeQuality; fill-rule:evenodd; clip-rule:evenodd"
viewBox="0 0 4220113 4220113"
 xmlns:xlink="http://www.w3.org/1999/xlink">
 <defs>
  <style type="text/css">
   <![CDATA[
    .fil1 {fill:#1B9437}
    .fil0 {fill:#28A745}
    .fil2 {fill:#E1F7EA}
   ]]>
  </style>
 </defs>
 <g id="Layer_x0020_1">
  <metadata id="CorelCorpID_0Corel-Layer"/>
  <path class="fil0" d="M1640481 0l939151 0c902264,0 1640481,738217 1640481,1640481l0 939151c0,902264 -738217,1640481 -1640481,1640481l-939151 0c-902264,0 -1640481,-738217 -1640481,-1640481l0 -939151c0,-902264 738217,-1640481 1640481,-1640481z"/>
  <g id="_2339096483184">
   <path class="fil1" d="M1377749 2527666l1538087 1657508c-24767,5208 -49737,9813 -74883,13882l-1787765 -1926568 26675 26625 27531 26198 28358 25739 14545 12734 14641 12519 14730 12286 14816 12062 14895 11838 14973 11614 15050 11380 15129 11157 15196 10923 15255 10708 15324 10466 15381 10251 15440 10008 15489 9783 15547 9560 15586 9327z"/>
   <path class="fil1" d="M1646829 1755025l0 0z"/>
   <path class="fil1" d="M1646420 1735457l0 0z"/>
   <path class="fil1" d="M1646420 1696157l0 0z"/>
   <path class="fil1" d="M2269723 875882l1911157 2059541 -19 48 -1909765 -2058051 -1373 -1538z"/>
   <path class="fil1" d="M2272478 878958l1908383 2056552 -49 224 -1902853 -2050594 -1363 -1548 -1373 -1548 -1372 -1548 -1373 -1538z"/>
   <path class="fil1" d="M2277959 885140l1902853 2050594 -155 691 -1891863 -2038756 -1343 -1577 -1354 -1577 -1343 -1567 -1353 -1568 -1363 -1567 -1353 -1558 -1363 -1557 -1363 -1558z"/>
   <path class="fil1" d="M2288794 897669l1891863 2038756 -215 1003 -1880978 -2027025 -1324 -1607 -1324 -1596 -1334 -1597 -1334 -1596 -1333 -1587 -1334 -1587 -1343 -1587 -1344 -1577z"/>
   <path class="fil1" d="M2299464 910403l1880978 2027025 -292 1305 -1870182 -2015392 -1304 -1626 -1305 -1626 -1304 -1626 -1315 -1616 -1314 -1616 -1314 -1616 -1324 -1606 -1324 -1606z"/>
   <path class="fil1" d="M2309968 923341l1870182 2015392 -350 1616 -1859493 -2003866 -1285 -1655 -1285 -1645 -1285 -1645 -1295 -1645 -1295 -1646 -1295 -1635 -1294 -1636 -1305 -1635z"/>
   <path class="fil1" d="M2320307 936483l1859493 2003866 -428 1937 -1848902 -1992456 -1265 -1674 -1256 -1675 -1266 -1674 -1275 -1675 -1266 -1664 -1275 -1665 -1285 -1665 -1275 -1655z"/>
   <path class="fil1" d="M2330470 949830l1848902 1992456 -497 2259 -1838416 -1981163 -1237 -1704 -1246 -1704 -1246 -1694 -1246 -1694 -1246 -1694 -1256 -1693 -1256 -1685 -1256 -1684z"/>
   <path class="fil1" d="M2340459 963382l1838416 1981163 -565 2570 -1828048 -1969987 -1217 -1733 -1217 -1723 -1227 -1724 -1216 -1723 -1227 -1713 -1227 -1713 -1236 -1714 -1236 -1703z"/>
   <path class="fil1" d="M2350262 977128l1828048 1969987 -652 2842 -1817758 -1958898 -1198 -1753 -1197 -1742 -1198 -1753 -1207 -1742 -1207 -1733 -1207 -1743 -1207 -1733 -1217 -1732z"/>
   <path class="fil1" d="M2359900 991059l0 0z"/>
   <path class="fil1" d="M2359900 991059l1817758 1958898 -759 3116 -1807546 -1947889 -1169 -1772 -1178 -1771 -1178 -1772 -1178 -1762 -1187 -1772 -1178 -1762 -1198 -1752 -1187 -1762z"/>
   <path class="fil1" d="M2369353 1005184l1807546 1947889 -847 3436 -1797441 -1937004 -1149 -1801 -1149 -1792 -1158 -1801 -1149 -1791 -1159 -1791 -1168 -1782 -1158 -1781 -1168 -1782z"/>
   <path class="fil1" d="M2378620 1019505l1797432 1936994 -915 3739 -1787443 -1926228 -1120 -1820 -1129 -1821 -1130 -1820 -1129 -1811 -1139 -1811 -1139 -1811 -1139 -1810 -1149 -1801z"/>
   <path class="fil1" d="M2387694 1034010l1787443 1926228 -984 4030 -1777562 -1915577 -1100 -1850 -1100 -1840 -1109 -1840 -1110 -1840 -1120 -1830 -1119 -1830 -1120 -1830 -1119 -1821z"/>
   <path class="fil1" d="M2396591 1048691l1777562 1915577 -1070 4342 -1767788 -1905054 -1071 -1869 -1081 -1859 -1090 -1869 -1081 -1860 -1090 -1850 -1100 -1859 -1090 -1850 -1101 -1849z"/>
   <path class="fil1" d="M2405295 1063556l1767788 1905054 -1139 4634 -1758131 -1894637 -1051 -1889 -1062 -1898 -1061 -1879 -1061 -1889 -1071 -1879 -1061 -1869 -1080 -1879 -1071 -1869z"/>
   <path class="fil1" d="M2413813 1078607l1758131 1894637 -1217 4955 -1748600 -1884376 -1032 -1908 -1022 -1908 -1042 -1908 -1032 -1908 -1042 -1899 -1051 -1898 -1042 -1899 -1051 -1888z"/>
   <path class="fil1" d="M2422127 1093823l1748600 1884376 -1285 5247 -1739196 -1874232 -1003 -1937 -1003 -1928 -1012 -1927 -1012 -1928 -1013 -1918 -1022 -1917 -1022 -1918 -1032 -1918z"/>
   <path class="fil1" d="M2430256 1109214l1739186 1874223 -1373 5549 -1729899 -1864215 -983 -1957 -983 -1947 -983 -1957 -984 -1947 -993 -1937 -993 -1947 -993 -1928 -1002 -1937z"/>
   <path class="fil1" d="M2438170 1124771l0 0z"/>
   <path class="fil1" d="M2438170 1124771l1729899 1864215 -1558 5724 -1720611 -1854207 -954 -1976 -954 -1977 -964 -1966 -964 -1967 -973 -1966 -974 -1967 -973 -1956 -974 -1957z"/>
   <path class="fil1" d="M2445900 1140503l0 0z"/>
   <path class="fil1" d="M2445900 1140503l1720611 1854207 -1645 6016 -1711450 -1844335 -925 -1996 -935 -1996 -934 -1986 -935 -1986 -944 -1986 -945 -1986 -944 -1976 -954 -1976z"/>
   <path class="fil1" d="M2453416 1156391l1711450 1844335 -1723 6318 -1702416 -1834600 -906 -2015 -905 -2015 -905 -2016 -916 -2005 -915 -2005 -915 -1996 -925 -2006 -924 -1995z"/>
   <path class="fil1" d="M2460727 1172444l1702416 1834600 -1791 6610 -1693519 -1825001 -876 -2035 -876 -2034 -886 -2025 -886 -2035 -886 -2025 -895 -2015 -906 -2025 -895 -2015z"/>
   <path class="fil1" d="M2467833 1188653l1693519 1825001 -1879 6903 -1684737 -1815539 -857 -2054 -847 -2054 -857 -2045 -866 -2044 -867 -2045 -866 -2044 -866 -2044 -877 -2035z"/>
   <path class="fil1" d="M2474736 1205018l1684737 1815539 -1976 7204 -1676083 -1806223 -828 -2073 -817 -2064 -838 -2074 -827 -2063 -837 -2064 -847 -2064 -837 -2054 -847 -2064z"/>
   <path class="fil1" d="M2481424 1221538l1676073 1806213c-701,2463 -1480,4897 -2191,7350l-1667418 -1796886 -798 -2093 -799 -2084 -808 -2093 -798 -2083 -818 -2083 -808 -2084 -818 -2083 -817 -2074z"/>
   <path class="fil1" d="M2487888 1238215l0 0z"/>
   <path class="fil1" d="M2487888 1238215l1667418 1796886 -2278 7613 -1658881 -1787677 -769 -2112 -778 -2113 -779 -2103 -779 -2103 -779 -2102 -788 -2103 -789 -2093 -798 -2093z"/>
   <path class="fil1" d="M2494147 1255037l0 0z"/>
   <path class="fil1" d="M2494147 1255037l1658881 1787677 -2375 7915 -1650470 -1778624 -740 -2132 -749 -2122 -750 -2132 -749 -2122 -760 -2113 -759 -2122 -759 -2112 -770 -2113z"/>
   <path class="fil1" d="M2500183 1272005l1650470 1778624 -2444 8197 -1642214 -1769716 -710 -2142 -721 -2151 -720 -2142 -721 -2132 -730 -2142 -730 -2132 -740 -2132 -740 -2132z"/>
   <path class="fil1" d="M2505995 1289110l0 0z"/>
   <path class="fil1" d="M2505995 1289110l1642214 1769716 -2570 8459 -1634046 -1760924 -691 -2161 -691 -2162 -692 -2161 -691 -2161 -711 -2151 -700 -2152 -711 -2151 -711 -2152z"/>
   <path class="fil1" d="M2511593 1306361l0 0z"/>
   <path class="fil1" d="M2511593 1306361l1634046 1760924 -2794 8577 -1625888 -1752124 -662 -2181 -662 -2170 -662 -2181 -662 -2171 -681 -2171 -672 -2171 -682 -2171 -681 -2161z"/>
   <path class="fil1" d="M2516957 1323738l0 0z"/>
   <path class="fil1" d="M2516957 1323738l1625888 1752124 -2901 8869 -1617847 -1743470 -633 -2200 -632 -2190 -633 -2191 -643 -2190 -642 -2190 -653 -2191 -652 -2190 -652 -2181z"/>
   <path class="fil1" d="M2522107 1341261l1617847 1743460 -2989 9141 -1609952 -1734951 -603 -2210 -604 -2210 -603 -2209 -614 -2210 -613 -2210 -623 -2200 -623 -2200 -623 -2201z"/>
   <path class="fil1" d="M2527013 1358911l0 0z"/>
   <path class="fil1" d="M2527013 1358911l1609952 1734951c-1042,3135 -2015,6289 -3076,9424l-1602193 -1726589 -574 -2229 -575 -2229 -574 -2230 -584 -2219 -584 -2220 -594 -2220 -594 -2219 -604 -2220z"/>
   <path class="fil1" d="M2531696 1376697l0 0z"/>
   <path class="fil1" d="M2531696 1376697l1602193 1726589c-1081,3193 -2239,6347 -3349,9531l-1594405 -1718207 -545 -2249 -545 -2239 -545 -2249 -555 -2239 -555 -2239 -565 -2229 -564 -2239 -565 -2230z"/>
   <path class="fil1" d="M2536145 1394610l1594405 1718197 -3456 9774 -1586743 -1709941 -516 -2259 -516 -2259 -516 -2258 -526 -2259 -526 -2248 -535 -2249 -536 -2249 -535 -2249z"/>
   <path class="fil1" d="M2540351 1412640l0 0z"/>
   <path class="fil1" d="M2540351 1412640l1586743 1709941 -3554 10037 -1579217 -1701832 -487 -2278 -487 -2268 -487 -2269 -496 -2268 -497 -2268 -506 -2269 -506 -2268 -506 -2258z"/>
   <path class="fil1" d="M2544323 1430786l0 0z"/>
   <path class="fil1" d="M2544323 1430786l1579217 1701832c-1236,3427 -2404,6883 -3670,10300l-1571819 -1693859 -448 -2288 -457 -2288 -458 -2287 -467 -2288 -467 -2278 -477 -2288 -477 -2278 -477 -2278z"/>
   <path class="fil1" d="M2548061 1449059l1571809 1693859c-1285,3475 -2648,6892 -3952,10358l-1564372 -1685827 -428 -2308 -429 -2297 -428 -2298 -428 -2307 -438 -2297 -439 -2298 -447 -2288 -448 -2297z"/>
   <path class="fil1" d="M2551546 1467449l0 0z"/>
   <path class="fil1" d="M2551546 1467449l1564372 1685827 -4070 10641 -1557060 -1677962 -390 -2317 -399 -2317 -399 -2317 -399 -2317 -409 -2307 -409 -2317 -418 -2307 -419 -2307z"/>
   <path class="fil1" d="M2554788 1485955l0 0z"/>
   <path class="fil1" d="M2554788 1485955l1557060 1677962 -4156 10884 -1549906 -1670242 -360 -2336 -360 -2327 -370 -2327 -380 -2327 -370 -2326 -389 -2317 -380 -2327 -389 -2317z"/>
   <path class="fil1" d="M2557786 1504559l0 0z"/>
   <path class="fil1" d="M2557786 1504559l1549906 1670242 -4391 11029 -1542769 -1662550 -331 -2347 -331 -2346 -331 -2346 -341 -2336 -351 -2337 -350 -2336 -351 -2337 -360 -2336z"/>
   <path class="fil1" d="M2560541 1523280l1542760 1662541c-1499,3748 -3067,7467 -4595,11195l-1535673 -1654909 -301 -2355 -302 -2366 -302 -2356 -311 -2346 -312 -2356 -321 -2356 -321 -2346 -322 -2346z"/>
   <path class="fil1" d="M2563033 1542107l0 0z"/>
   <path class="fil1" d="M2563033 1542107l1535673 1654909 -4702 11449 -1528731 -1647432 -263 -2376 -273 -2365 -272 -2366 -283 -2366 -282 -2365 -282 -2366 -292 -2366 -293 -2356z"/>
   <path class="fil1" d="M2565282 1561033l1528732 1647422c-1626,3875 -3223,7769 -4878,11633l-1521868 -1640033 -233 -2385 -244 -2385 -243 -2376 -244 -2375 -253 -2385 -253 -2375 -253 -2366 -263 -2375z"/>
   <path class="fil1" d="M2567268 1580055l0 0z"/>
   <path class="fil1" d="M2567268 1580055l1521868 1640033c-1674,3924 -3436,7808 -5150,11712l-1514995 -1632625 -204 -2395 -204 -2395 -205 -2395 -214 -2385 -214 -2395 -224 -2385 -224 -2385 -234 -2385z"/>
   <path class="fil1" d="M2568991 1599175l0 0z"/>
   <path class="fil1" d="M2568991 1599175l1514995 1632625c-1742,3991 -3475,7992 -5257,11974l-1508268 -1625372 -165 -2405 -175 -2414 -176 -2405 -185 -2404 -184 -2395 -195 -2405 -195 -2404 -195 -2395z"/>
   <path class="fil1" d="M2570461 1618402l0 0z"/>
   <path class="fil1" d="M2570461 1618402l1508268 1625372c-1810,4050 -3582,8129 -5432,12159l-1501628 -1618226 -137 -2424 -136 -2415 -146 -2414 -146 -2414 -156 -2415 -156 -2404 -165 -2415 -166 -2404z"/>
   <path class="fil1" d="M2571678 1637707l1501629 1618217c-1869,4098 -3816,8138 -5724,12217l-1494970 -1611042 -107 -2424 -107 -2434 -107 -2424 -117 -2424 -117 -2424 -117 -2424 -126 -2414 -137 -2424z"/>
   <path class="fil1" d="M2572613 1657099l0 0z"/>
   <path class="fil1" d="M2572613 1657099l1494970 1611042c-1938,4157 -3865,8324 -5841,12461l-1488448 -1604013 -68 -2444 -78 -2433 -78 -2444 -87 -2434 -88 -2433 -87 -2434 -98 -2434 -97 -2434z"/>
   <path class="fil1" d="M2573294 1676589l0 0z"/>
   <path class="fil1" d="M2573294 1676589l1488448 1604013c-2006,4216 -3992,8431 -6036,12627l-1482003 -1597072 -39 -2454 -39 -2443 -48 -2453 -49 -2444 -49 -2444 -58 -2443 -59 -2444 -68 -2443z"/>
   <path class="fil1" d="M2573703 1696157l0 0z"/>
   <path class="fil1" d="M2573703 1696157l1482003 1597072c-2074,4254 -4225,8460 -6338,12685l-1475538 -1590112 0 -2463 -10 -2453 -10 -2463 -9 -2453 -20 -2454 -19 -2453 -30 -2453 -29 -2453z"/>
   <path class="fil1" d="M2573840 1715802l1475538 1590102 -10 10 -1475538 -1590112 10 0z"/>
   <path class="fil1" d="M2573830 1715802l1475538 1590112c-2142,4293 -4244,8596 -6415,12870l-1469250 -1583327 29 -2453 30 -2453 19 -2453 20 -2463 9 -2454 10 -2463 10 -2453 0 -2463z"/>
   <path class="fil1" d="M2573703 1735457l0 0z"/>
   <path class="fil1" d="M2573703 1735457l1469250 1583327 -6630 12869 -1463029 -1576628 68 -2443 59 -2444 58 -2443 49 -2444 49 -2453 48 -2444 39 -2443 39 -2454z"/>
   <path class="fil1" d="M2573294 1755025l0 0z"/>
   <path class="fil1" d="M1860223 991059l0 0z"/>
   <path class="fil1" d="M1714118 1289110l0 0z"/>
   <path class="fil1" d="M1725975 1255037l0 0z"/>
   <path class="fil1" d="M1646829 1676589l0 0z"/>
   <path class="fil1" d="M1647500 1657099l0 0z"/>
   <path class="fil1" d="M1648445 1637707l0 0z"/>
   <path class="fil1" d="M1649652 1618402l0 0z"/>
   <path class="fil1" d="M1428177 3098730l1040591 1121383 -560638 0 -1200462 -1293676 15518 13075 16131 12655 16715 12228 17300 11789 17854 11341 18399 10894 18935 10436 19441 9969 19938 9501 20424 9015 20902 8518 21339 8032 21778 7525 22196 7019 22605 6494 22994 5967 23365 5432 23724 4897 24066 4352 24396 3787 24698 3222 25000 2658 25282 2073 25545 1490 25789 896 26022 301 26236 -321 26441 -925 26635 -1548 26791 -2190 26957 -2823 27093 -3466z"/>
   <path class="fil1" d="M1651122 1599175l0 0z"/>
   <path class="fil1" d="M1652855 1580055l0 0z"/>
   <path class="fil1" d="M1654841 1561033l0 0z"/>
   <path class="fil1" d="M1659582 1523280l0 0z"/>
   <path class="fil1" d="M1672062 1449059l0 0z"/>
   <path class="fil1" d="M1675791 1430786l0 0z"/>
   <path class="fil1" d="M1683978 1394610l0 0z"/>
   <path class="fil1" d="M1688427 1376697l0 0z"/>
   <path class="fil1" d="M1646283 1715802l0 0z"/>
   <path class="fil1" d="M1646283 1715802l0 0z"/>
   <path class="fil1" d="M2606335 2362840l1204405 1297920c-301225,342366 -742023,559353 -1231108,559353l-78806 0 -872076 -939783 -11954 -12646 -11614 -12948 -11293 -13250 -10943 -13541 -10601 -13824 -10242 -14106 -9881 -14379 -9511 -14642 -9141 -14914 -8762 -15158 -8372 -15401 -7983 -15644 -7574 -15878 -7175 -16112 -6756 -16326 -6328 -16530 -5909 -16745 -5471 -16948 -5033 -17144 -4586 -17319 -4127 -17504 -3670 -17679 -3203 -17844 -2726 -18010 -2249 -18156 -1752 -18303 -1266 -18448 -769 -18584 -253 -18701 876 -34502 2590 -34053 4264 -33548 5889 -33021 7487 -32438 9034 -31814 10543 -31153 12004 -30442 13424 -29702 14808 -28913 16140 -28076 17446 -27200 18691 -26285 19899 -25331 21077 -24328 22196 -23277 23286 -22206 24329 -21067 25330 -19908 26285 -18692 27200 -17435 28077 -16151 28913 -14807 29692 -13425 30452 -12003 31152 -10544 31815 -9034 32437 -7486 33012 -5890 33557 -4264 34044 -2590 34502 -876 34501 876 34054 2590 33547 4264 33022 5890 32437 7486 31815 9034 31152 10544 30442 12003 29702 13425 28904 14807 28076 16151 27210 17435 26284 18692 25322 19908 24328 21067 23286 22206 22196 23277z"/>
   <path class="fil1" d="M1863728 2921190l1150627 1239967c162334,-44918 314787,-114271 453055,-203874l-1357353 -1462746 -246329 426653z"/>
   <path class="fil1" d="M2262655 3073516l946647 1020147c22099,-9268 43944,-19032 65547,-29225l-1164792 -1255232 152598 264310z"/>
   <path class="fil1" d="M1693100 1358911l0 0z"/>
   <path class="fil1" d="M1817505 3001252l1098574 1183863c33138,-6980 65897,-15002 98276,-23958l-1150627 -1239967 -46223 80062z"/>
   <path class="fil1" d="M2498596 2460707l1211210 1305251c-268447,255928 -622914,422282 -1014092,449969l-956820 -1031119 18234 17378 19042 16501 19830 15576 20580 14642 21301 13648 21982 12636 22625 11595 23257 10514 23831 9394 24387 8256 24912 7077 25399 5861 25847 4614 26266 3340 26655 2024 27015 682 27015 -682 26654 -2024 26266 -3340 25847 -4614 25399 -5861 24912 -7077 24387 -8256 23831 -9394 23258 -10514 22624 -11595 21982 -12636 21301 -13648 20580 -14642 19830 -15576 19042 -16501 18234 -17378 17377 -18234 16502 -19042 15576 -19830 14641 -20580 13649 -21301 12636 -21982 11595 -22624 10514 -23258 9394 -23831 8256 -24387 7077 -24912 5861 -25399 4614 -25847 3339 -26265 2025 -26655 682 -27015 -682 -27015 -2025 -26655 -3339 -26266 -4614 -25856 -5861 -25390 -7077 -24912 -8256 -24386 -9394 -23842 -10514 -23247 -11595 -22635 -12636 -21982 -13649 -21300 -14641 -20580 -15576 -19831 -16502 -19042z"/>
   <path class="fil1" d="M1666494 3316350l838644 903763 -588655 0 -680507 -733349 11692 -536 11867 -866 12042 -1188 12218 -1519 12373 -1830 12520 -2161 12675 -2473 12811 -2794 12948 -3105 13074 -3417 13201 -3729 13308 -4040 13415 -4352 13522 -4643 13610 -4955 13697 -5257 13776 -5559 13853 -5851 13921 -6153 13980 -6435 14028 -6736 14077 -7029 14126 -7311 14145 -7603 14184 -7876 14204 -8168 14213 -8450 14223 -8723 14214 -9005 14223 -9277 14193 -9550 14185 -9823z"/>
   <path class="fil1" d="M1698016 1341261l0 0z"/>
   <path class="fil1" d="M1703156 1323738l0 0z"/>
   <path class="fil1" d="M1732225 1238215l0 0z"/>
   <path class="fil1" d="M1738699 1221538l0 0z"/>
   <path class="fil1" d="M1774223 1140503l0 0z"/>
   <path class="fil1" d="M1781943 1124771l0 0z"/>
   <path class="fil1" d="M1789867 1109214l0 0z"/>
   <path class="fil1" d="M1841502 1019505l0 0z"/>
   <path class="fil1" d="M2573294 1755025l1463029 1576628c-1947,3748 -3943,7458 -5919,11186l-1457684 -1570865 78 -2113 87 -2122 78 -2112 68 -2123 69 -2112 68 -2122 68 -2123 58 -2122z"/>
   <path class="fil1" d="M3546148 1425539l673965 726291 0 427802c0,391256 -138882,751613 -369692,1034351l-1008047 -1086317 15586 -9327 15547 -9560 15489 -9783 15440 -10008 15381 -10251 15323 -10466 15255 -10708 15197 -10923 15128 -11157 15051 -11380 14973 -11614 14894 -11838 14817 -12062 14730 -12286 14641 -12519 14545 -12734 28358 -25739 27521 -26198 26685 -26625 25827 -27025 24971 -27405 24104 -27764 23238 -28096 22371 -28397 21476 -28680 20599 -28923 19704 -29167 18809 -29371 17903 -29546 16988 -29702 16072 -29829 15148 -29945 14223 -30013 13289 -30082 12344 -30111 11400 -30111 10446 -30091 9491 -30052 8519 -29985 7554 -29887 6571 -29770 5598 -29634 4595 -29458 3612 -29264 2609 -29050 1596 -28806 584 -28544 -428 -28241z"/>
   <path class="fil1" d="M3512445 2926437l467969 504311c-113668,185931 -263336,347691 -439026,475620l-749452 -807638 27093 3466 26957 2823 26801 2190 26625 1548 26441 935 26246 311 26022 -292 25789 -895 25545 -1490 25272 -2083 25000 -2648 24708 -3232 24386 -3787 24075 -4342 23715 -4897 23374 -5442 22985 -5967 22605 -6494 22206 -7019 21778 -7525 21339 -8022 20892 -8528 20424 -9015 19947 -9501 19442 -9969 18925 -10436 18409 -10894 17854 -11341 17290 -11789 16715 -12228 16131 -12655 15518 -13075z"/>
   <path class="fil1" d="M3435975 2822914l552120 594993c-2560,4274 -5082,8586 -7681,12841l-467969 -504311 -10903 -17844 -11663 -17631 -12403 -17396 -13123 -17144 -13843 -16891 -14535 -16617z"/>
   <path class="fil1" d="M2791936 3098730l749452 807638c-33538,24416 -68010,47625 -103378,69500l-453863 -489104 -1256 -10806 -1586 -10943 -1918 -11078 -2230 -11205 -2560 -11342 -2882 -11448 -3193 -11576 -3504 -11672 -3817 -11780 -4137 -11876 -4439 -11965 -4741 -12062 -5053 -12130 -5354 -12208 -5656 -12276 -5948 -12334 -6241 -12393 -6542 -12451 -6834 -12491 -7116 -12529 -7409 -12568 -7690 -12597 -7974 -12617 -8255 -12636 -8528 -12656 -8810 -12655 -9083 -12656 -9356 -12646 -9628 -12636 -9891 -12627 -10163 -12597 -10417 -12578z"/>
   <path class="fil1" d="M2984147 3486764l453863 489104c-58382,36107 -119129,68701 -181999,97400l-702391 -756928 14184 9823 14203 9550 14214 9278 14223 9005 14223 8732 14213 8440 14194 8168 14184 7886 14155 7603 14116 7311 14087 7019 14028 6737 13980 6444 13921 6153 13853 5851 13775 5559 13698 5257 13610 4945 13522 4653 13415 4352 13308 4030 13191 3739 13084 3417 12948 3105 12811 2794 12675 2473 12520 2161 12373 1830 12218 1519 12042 1188 11867 866 11692 536z"/>
  </g>
  <g id="_2339027402592">
   <path class="fil2" d="M2110057 733359c4332,3057 8644,6153 12928,9297 4293,3145 8557,6328 12792,9550 4244,3223 8460,6494 12656,9794 4195,3310 8372,6659 12519,10037 4147,3388 8265,6815 12373,10280 4099,3466 8178,6971 12228,10514 4050,3544 8080,7126 12081,10748 4001,3621 7983,7282 11935,10981 3953,3700 7886,7428 11790,11205 3903,3778 7778,7584 11633,11429 3855,3856 7681,7740 11478,11663 3797,3923 7574,7876 11322,11877 3748,3991 7467,8032 11166,12091 3690,4069 7360,8178 11001,12315 3641,4137 7253,8314 10835,12529 3583,4206 7146,8450 10670,12734 3534,4274 7038,8586 10504,12938 3475,4351 6922,8732 10339,13142 3417,4420 6805,8869 10163,13347 3359,4488 6688,9005 9989,13552 3300,4546 6561,9131 9803,13746 3242,4614 6454,9258 9638,13931l0 0c3183,4682 6328,9394 9453,14125 3115,4741 6201,9521 9258,14321l9 0c3057,4809 6085,9637 9074,14505 2998,4858 5967,9755 8897,14681 2931,4926 5842,9881 8704,14865 2872,4985 5705,9998 8518,15051 2804,5043 5578,10115 8314,15216 2745,5101 5451,10232 8119,15391l10 0c2667,5150 5305,10339 7914,15557l0 0c2609,5218 5189,10456 7730,15732l0 0c2541,5267 5043,10563 7516,15888 2472,5325 4906,10669 7311,16053 2404,5374 4780,10777 7106,16209 2337,5432 4634,10884 6903,16365 2258,5490 4487,10991 6678,16520l10 0c2190,5540 4342,11099 6464,16677l0 0c2122,5578 4205,11185 6259,16822l0 0c2045,5627 4060,11283 6036,16968 1977,5676 3914,11381 5812,17105l0 0c1908,5724 3768,11478 5598,17251l0 0c1830,5773 3612,11565 5364,17377l0 0c1752,5822 3466,11663 5140,17523l10 0c1674,5861 3310,11751 4906,17650l0 0c1607,5909 3164,11838 4683,17786l0 0c1519,5949 2998,11916 4439,17913l10 0c1441,5987 2843,11994 4206,18030l0 0c1362,6026 2686,12081 3972,18146l0 0c1285,6075 2531,12169 3728,18273l10 0c1197,6113 2356,12247 3485,18390l0 0c1120,6152 2200,12314 3242,18506l0 0c1041,6182 2044,12383 2998,18604l0 0c964,6221 1879,12461 2746,18721l9 0c867,6259 1704,12529 2492,18827l0 0c789,6289 1539,12598 2240,18926l9 0c701,6318 1363,12665 1986,19022l0 0c623,6357 1188,12734 1723,19120l0 0c536,6396 1023,12802 1470,19227l0 0c448,6415 857,12850 1208,19305l9 0c360,6454 662,12918 935,19392l0 0c272,6484 496,12977 681,19490l0 0c185,6503 312,13035 409,19568l0 0c88,6532 127,13084 127,19645l10 0 -10 0c0,6562 -39,13113 -127,19655l0 0c-97,6533 -233,13055 -409,19568l0 0c-155,5656 -350,11312 -574,16949 306813,-271514 677450,-392395 973428,-346435 10066,299648 -154808,653453 -461777,925511 -77336,68536 -158742,127492 -241997,176616 4936,730 9872,1509 14827,2307 299774,48773 542968,204954 655244,396464 -162236,141695 -430829,212772 -720509,172293 112558,133946 180539,273597 192211,388034 -123704,-3972 -279379,-64204 -430527,-170424 139125,-122848 226887,-302510 226887,-502694 0,-370287 -300164,-670461 -670450,-670461 -370277,0 -670451,300174 -670451,670461 0,200184 87762,379846 226888,502704 -151139,106210 -306814,166442 -430518,170414 11672,-114437 79643,-254088 192201,-388034 -289670,40469 -558263,-30598 -720509,-172293 112285,-191510 355479,-347691 655254,-396464 4946,-798 9891,-1567 14827,-2307 -83255,-49124 -164661,-108080 -241997,-176616 -306979,-272058 -471853,-625863 -461787,-925511 295988,-45960 666625,74921 973438,346435 -224,-5637 -419,-11293 -574,-16949l0 0c-185,-6513 -322,-13035 -409,-19568l0 0c-88,-6542 -137,-13093 -137,-19655 0,-6561 39,-13113 137,-19645l0 0c87,-6542 224,-13065 409,-19568l0 0c185,-6513 399,-13006 671,-19490l0 0c273,-6474 584,-12938 945,-19392l0 0c360,-6455 759,-12890 1207,-19305l0 0c448,-6425 934,-12831 1470,-19227l0 0c535,-6386 1110,-12763 1733,-19120l0 0c623,-6357 1285,-12695 1986,-19022l0 0c710,-6328 1450,-12637 2239,-18926l9 0c789,-6298 1616,-12568 2493,-18827l0 0c876,-6260 1791,-12491 2745,-18721l10 0c954,-6221 1947,-12422 2988,-18604l10 0c1032,-6192 2113,-12354 3232,-18506l10 0c1119,-6143 2278,-12277 3485,-18390l0 0c1207,-6104 2444,-12198 3729,-18273l0 0c1285,-6065 2609,-12120 3972,-18146l9 0c1363,-6036 2765,-12043 4206,-18030l0 0c1441,-5997 2920,-11964 4449,-17913l0 0c1519,-5948 3076,-11877 4673,-17786l0 0c1606,-5899 3242,-11789 4916,-17650l0 0c1674,-5860 3388,-11701 5140,-17523l0 0c1752,-5812 3544,-11604 5364,-17377l10 0c1820,-5773 3690,-11527 5588,-17251l0 0c1898,-5724 3845,-11429 5822,-17105 1966,-5685 3981,-11341 6035,-16968l0 0c2045,-5627 4128,-11244 6250,-16822l0 0c2123,-5578 4284,-11137 6474,-16677l0 0c2191,-5529 4420,-11030 6688,-16520 2259,-5481 4556,-10933 6893,-16365 2336,-5432 4702,-10835 7106,-16209 2405,-5384 4839,-10728 7321,-16053 2463,-5325 4975,-10621 7516,-15888l0 0c2541,-5276 5111,-10514 7720,-15732l0 0c2609,-5208 5247,-10407 7924,-15557l0 0c2677,-5169 5384,-10290 8119,-15391 2746,-5101 5520,-10173 8324,-15216 2804,-5053 5646,-10066 8508,-15051 2872,-4984 5773,-9939 8704,-14865 2940,-4926 5899,-9823 8898,-14681 2998,-4868 6026,-9706 9082,-14505l0 0c3057,-4800 6153,-9580 9268,-14321 3125,-4741 6270,-9443 9453,-14125l0 0c3184,-4673 6386,-9327 9628,-13931 3242,-4615 6513,-9200 9813,-13746 3301,-4547 6630,-9064 9989,-13552 3358,-4478 6746,-8927 10163,-13347 3407,-4410 6854,-8791 10329,-13142 3476,-4352 6980,-8664 10504,-12938 3534,-4284 7088,-8528 10670,-12734 3592,-4215 7204,-8392 10845,-12529 3641,-4137 7301,-8246 11001,-12315 3689,-4059 7418,-8100 11166,-12091 3738,-4001 7516,-7954 11312,-11877 3807,-3923 7633,-7807 11488,-11663 3845,-3845 7720,-7651 11624,-11429 3903,-3777 7836,-7505 11789,-11205 3952,-3699 7934,-7360 11935,-10981 4001,-3622 8032,-7204 12091,-10748 4050,-3543 8129,-7048 12228,-10514 4098,-3465 8226,-6892 12373,-10280 4147,-3378 8314,-6727 12510,-10037 4195,-3300 8420,-6571 12655,-9794 4245,-3222 8509,-6405 12792,-9550 4293,-3144 8596,-6240 12929,-9297zm-463774 982443l0 0 0 0z"/>
   <path class="fil2" d="M2110057 2288736c289893,0 524900,235006 524900,524910 0,289893 -235007,524900 -524900,524900 -289894,0 -524901,-235007 -524901,-524900 0,-289904 235007,-524910 524901,-524910zm0 205801l246328 426653 46223 80062 -139953 72264 -152598 -264310 -152599 264310 -139953 -72264 46223 -80062 246329 -426653z"/>
  </g>
 </g>
</svg>
