<?xml version="1.0" encoding="UTF-8"?>
<!DOCTYPE svg PUBLIC "-//W3C//DTD SVG 1.0//EN" "http://www.w3.org/TR/2001/REC-SVG-20010904/DTD/svg10.dtd">
<!-- Creator: CorelDRAW X8 -->
<svg xmlns="http://www.w3.org/2000/svg" xml:space="preserve" width="1192px" height="569px" version="1.0" style="shape-rendering:geometricPrecision; text-rendering:geometricPrecision; image-rendering:optimizeQuality; fill-rule:evenodd; clip-rule:evenodd"
viewBox="0 0 111637552 53337020"
 xmlns:xlink="http://www.w3.org/1999/xlink">
 <defs>
  <style type="text/css">
   <![CDATA[
    .fil0 {fill:none}
    .fil4 {fill:#0D3D18}
    .fil3 {fill:#FFFFFF}
    .fil2 {fill:#0D3D18;fill-rule:nonzero}
    .fil1 {fill:#FFFFFF;fill-rule:nonzero}
   ]]>
  </style>
 </defs>
 <g id="Layer_x0020_1">
  <metadata id="CorelCorpID_0Corel-Layer"/>
  <path class="fil0" d="M0 0l111637552 0 0 53337020 -111637552 0 0 -53337020z"/>
  <g id="_2339096541072">
   <g>
    <path class="fil1" d="M16924719 26111611c-568406,-321990 -1458802,-606138 -2481757,-606138 -2197498,0 -3618347,1382897 -3618347,3125737 0,1212497 814601,2254372 2671188,2993289 1250228,530343 1685966,966080 1685966,1761760 0,795681 -568296,1363976 -1742840,1363976 -890396,0 -1856587,-378864 -2387040,-700964l-492501 1629313c700964,416706 1742839,700854 2841589,700854 2368119,0 3902606,-1193465 3902606,-3201532 0,-1515565 -909317,-2462724 -2633236,-3163689 -1269370,-549374 -1742950,-909317 -1742950,-1629202 0,-700964 530453,-1269260 1515565,-1269260 852444,0 1572329,321990 1989146,587217l492611 -1591361zm16841400 3751017c0,-3296248 -1704997,-4357155 -3258405,-4357155 -1496534,0 -2519599,757728 -3220563,1913351l-37842 0c-435738,-1174544 -1439771,-1913351 -2765905,-1913351 -1591249,0 -2538519,890397 -3049941,1761761l-56874 0 -113637 -1534487 -1894429 0c37842,890397 75795,1761872 75795,2936416l0 7501922 2159545 0 0 -6327378c0,-1648124 1117781,-2538520 2102893,-2538520 1269260,0 1818634,1117670 1818634,2576362l0 6289536 2159656 0 0 -6441015c0,-1515566 1022955,-2424883 2026988,-2424883 1326133,0 1894429,1155623 1894429,2898462l0 5967436 2159656 0 0 -6308457zm7009422 -4357155c-2765905,0 -4925561,1989146 -4925561,5512777 0,3372043 2064940,5361188 4773971,5361188 2349088,0 4887607,-1610282 4887607,-5512777 0,-3201532 -1875397,-5361188 -4736017,-5361188zm2481645 5418062c0,2083861 -985112,3807779 -2576361,3807779 -1610282,0 -2576473,-1723918 -2576473,-3769937 0,-1799714 719885,-3807780 2595394,-3807780 1837555,0 2557440,2046019 2557440,3769938zm8979646 -890397l3675222 -4300391 -2595394 0 -2595393 3485790c-265227,359943 -549375,814601 -795681,1212386l-37842 0 0 -9453115 -2197498 0 0 15193277 2197498 0 0 -3751017 852444 -1041875 2993289 4792892 2652156 0 -4148801 -6137947zm12654757 4167723c-681933,284147 -1477613,492611 -2633236,492611 -1648123,0 -3106815,-890396 -3163689,-3239484l6630447 0c37953,-265227 56874,-568406 56874,-928349 0,-2576362 -1174544,-5020166 -4110959,-5020166 -2955226,0 -4698176,2481646 -4698176,5588572 0,3182611 1818745,5285393 4963403,5285393 1420849,0 2576472,-284148 3315278,-625170l-359942 -1553407zm-5778004 -4319312c113637,-1212386 795680,-2803747 2405962,-2803747 1685965,0 2197498,1553408 2178577,2803747l-4584539 0z"/>
    <path class="fil2" d="M50778251 39013891l-672417 2221177c-105781,362598 -203927,702624 -279500,1050174l-22683 0c-75574,-347550 -166196,-695100 -279501,-1057698l-679941 -2213653 -944393 0 1458139 4162853 838612 0 1495870 -4162853 -914186 0zm3263938 -90733c-1103065,0 -1964360,793357 -1964360,2198605 0,1344833 823453,2138079 1903834,2138079 936869,0 1949312,-642209 1949312,-2198494 0,-1276895 -747991,-2138190 -1888786,-2138190zm989648 2160763c0,831088 -392805,1518663 -1027490,1518663 -642099,0 -1027491,-687575 -1027491,-1503504 0,-717783 287135,-1518554 1035125,-1518554 732832,0 1019856,815930 1019856,1503395zm1941677 -2070030l-589319 0 0 657257 589319 0 0 2153239c0,543952 98257,891502 309818,1118112 181244,204038 475904,317343 823454,317343 294659,0 528904,-37731 679941,-98257l-30208 -672306c-105781,30208 -211562,52780 -385281,52780 -370233,0 -528905,-249293 -528905,-763039l0 -2107872 989760 0 0 -657257 -989760 0 0 -1027491 -868819 271976 0 755515zm5515211 3377132c-271976,113305 -589319,196402 -1050174,196402 -657257,0 -1239052,-355074 -1261625,-1291943l2644301 0c15048,-105781 22572,-226610 22572,-370122 0,-1027602 -468379,-2002202 -1639382,-2002202 -1178638,0 -1873738,989759 -1873738,2228812 0,1269260 725307,2107872 1979519,2107872 566636,0 1027491,-113305 1322150,-249293l-143623 -619526zm-2304275 -1722591c45367,-483538 317343,-1118113 959442,-1118113 672417,0 876454,619526 868930,1118113l-1828372 0zm5598309 -1722591c-75573,-15048 -135988,-22683 -219085,-22683 -453331,0 -891503,324867 -1080382,853771l-30207 0 -30207 -763038 -763039 0c22573,385281 30207,785721 30207,1269259l0 2893594 876344 0 0 -2206128c0,-725308 370233,-1208846 959552,-1208846 98146,0 181244,7635 256817,22683l0 -838612z"/>
   </g>
   <g>
    <path class="fil3" d="M83809326 10077399c52116,36736 103900,74024 155462,111756 51452,37842 102794,76016 153692,114854 51010,38727 101687,78008 152143,117731 50456,39723 100581,80000 150484,120608 49902,40719 99473,81881 148712,123595 49350,41605 98368,83762 147054,126362 48685,42600 97150,85643 145282,129239 48133,43485 95933,87523 143513,132004 47468,44371 94716,89295 141631,134661 46915,45366 93609,91175 139861,137426 46362,46363 92281,93057 137980,140193 45698,47137 91064,94716 136099,142738 45034,48022 89736,96486 134217,145393 44371,48907 88520,98257 132226,148049 43707,49793 87192,99917 130235,150594 43153,50567 85974,101577 128353,153028 42379,51452 84536,103347 126251,155574 41715,52226 83209,104895 124260,158007 41050,53112 81769,106555 122157,160442 40387,53997 80331,108215 120054,162876 39723,54661 79004,109764 117953,165199 38948,55546 77454,111314 115739,167524l0 0c38285,56320 76127,112862 113637,169847 37510,56984 74578,114411 111424,172170l0 0c36735,57759 73139,115850 109211,174273 35961,58534 71590,117399 106887,176597 35297,59197 70152,118726 104675,178698 34412,59862 68602,120166 102240,180802 33748,60635 67164,121603 100027,182903 32973,61411 65504,123042 97703,185006l0 0c32089,62074 63845,124481 95159,187108l110 0c31314,62738 62185,125698 92725,189100l110 0c30540,63292 60636,126915 90290,190981 29765,63956 59087,128353 87967,192973 28879,64619 57427,129681 85421,194964 28105,65173 55767,130788 82876,196735 27220,65836 53997,132115 80443,198616l0 0c26334,66500 52226,133332 77786,200386l0 0c25450,67053 50567,134549 75131,202156l111 0c24564,67718 48796,135767 72475,204038 23790,68160 47026,136763 69931,205587l0 0c22904,68824 45255,137979 67274,207357l0 0c21909,69377 43486,139086 64509,209016l0 0c21134,69931 41604,140083 61853,210566l0 0c20138,70484 39834,141300 58976,212226l111 0c19142,71037 37842,142295 56210,213775l0 0c18257,71479 36072,143291 53444,215324l0 0c17372,72032 34190,144176 50566,216762l0 0c16376,72475 32310,145172 47801,218201l0 0c15491,73028 30429,146168 44813,219639l111 0c14384,73471 28326,147164 41825,221077l111 0c13388,73914 26445,148049 38948,222406l0 0c12504,74356 24454,148934 35961,223733l111 0c11508,74688 22462,149819 32974,224950l0 0c10511,75242 20580,150705 30096,226278l0 0c9516,75685 18479,151480 26888,227606l0 0c8520,76017 16487,152254 23900,228713l111 0c7414,76348 14274,153028 20691,229819l0 0c6418,76790 12283,153802 17704,231036l0 0c5422,77233 10180,154577 14495,232142l0 0c4316,77566 8078,155241 11287,233139l110 0c3209,77897 5865,156015 8078,234245l0 0c2213,78229 3762,156679 4868,235240l111 0c996,78561 1549,157344 1549,236237l0 0 0 0c0,78893 -553,157565 -1549,236126l-111 0c-1106,78672 -2655,157011 -4868,235241l0 0c-1881,68049 -4205,135988 -6861,203816 3688279,-3263938 8143800,-4717097 11701844,-4164624 121051,3602193 -1860902,7855447 -5551172,11125913 -929677,823896 -1908371,1532495 -2909085,2123031 59308,8852 118727,18146 178145,27773 3603743,586331 6527212,2463831 7877024,4766004 -1950307,1703448 -5179279,2557773 -8661417,2071247 1353021,1610171 2170167,3288944 2310471,4664538 -1487129,-47690 -3358543,-771780 -5175407,-2048564 1672356,-1476838 2727509,-3636605 2727509,-6043120 0,-4451316 -3608500,-8059706 -8059706,-8059706 -4451317,0 -8059706,3608390 -8059706,8059706 0,2406515 1055042,4566282 2727509,6043120 -1816864,1276784 -3688279,2000874 -5175407,2048564 140303,-1375594 957449,-3054367 2310582,-4664538 -3482249,486415 -6711111,-367799 -8661529,-2071247 1349813,-2302173 4273393,-4179673 7877024,-4765893 59419,-9738 118838,-18921 178256,-27884 -1000824,-590536 -1979408,-1299135 -2909084,-2123031 -3690270,-3270466 -5672334,-7523720 -5551284,-11125913 3558155,-552473 8013676,900686 11701844,4164624 -2656,-67828 -4979,-135767 -6860,-203816l0 0c-2213,-78230 -3762,-156569 -4869,-235241l0 0c-1106,-78561 -1660,-157233 -1660,-236126 0,-78893 554,-157676 1660,-236237l0 0c1107,-78561 2766,-157011 4869,-235240l0 0c2213,-78230 4868,-156348 8188,-234245l0 0c3209,-77898 6971,-155573 11286,-233139l0 0c4315,-77565 9184,-154909 14495,-232142l0 0c5422,-77234 11286,-154246 17704,-231036l0 0c6418,-76791 13278,-153471 20802,-229819l0 0c7414,-76459 15380,-152696 23900,-228713l0 0c8520,-76126 17483,-151921 26888,-227606l111 0c9405,-75573 19474,-151036 29986,-226278l0 0c10512,-75131 21466,-150151 33084,-224950l0 0c11508,-74799 23458,-149377 35961,-223733l111 0c12393,-74357 25449,-148492 38948,-222406l0 0c13500,-73913 27441,-147606 41937,-221077l0 0c14495,-73471 29432,-146721 44813,-219639l0 0c15490,-73029 31424,-145726 47800,-218201l0 0c16376,-72586 33306,-144840 50567,-216762l111 0c17261,-72033 35075,-143845 53333,-215324l110 0c18257,-71480 36957,-142738 56210,-213775l0 0c19253,-71037 38838,-141742 59087,-212226l0 0c20138,-70483 40719,-140635 61742,-210566l0 0c21134,-69930 42600,-139639 64509,-209016l111 0c21908,-69378 44259,-138533 67164,-207357l0 0c22904,-68824 46141,-137427 69930,-205587 23679,-68271 47912,-136320 72586,-204038l0 0c24675,-67607 49682,-135103 75131,-202156l0 0c25560,-67054 51452,-133886 77787,-200386l111 0c26334,-66501 53111,-132780 80331,-198616 27220,-65947 54882,-131562 82877,-196735 28104,-65283 56541,-130345 85421,-194964 28879,-64620 58202,-129017 87966,-192973 29654,-63955 59862,-127689 90401,-190981l0 0c30539,-63402 61410,-126362 92835,-189100l0 0c31313,-62627 63070,-125034 95269,-187108l0 0c32088,-61964 64619,-123595 97593,-185006 32973,-61300 66279,-122268 100027,-182903 33637,-60636 67828,-120940 102351,-180802 34412,-59972 69377,-119501 104563,-178698 35297,-59198 70927,-118063 106998,-176597 35961,-58423 72365,-116514 109101,-174273l0 0c36846,-57759 73913,-115186 111424,-172170 37510,-56985 75352,-113527 113637,-169847l0 0c38284,-56210 76901,-112088 115739,-167524 39059,-55435 78340,-110538 117952,-165199 39723,-54661 79779,-108879 120055,-162876 40387,-53887 81106,-107330 122157,-160442 41051,-53112 82544,-105781 124259,-158007 41826,-52227 83873,-104122 126251,-155574 42490,-51451 85200,-102461 128354,-153028 43042,-50677 86528,-100801 130234,-150594 43817,-49792 87856,-99142 132337,-148049 44370,-48907 89073,-97371 134107,-145393 45034,-48022 90401,-95601 136099,-142738 45698,-47136 91728,-93830 137980,-140193 46362,-46251 92945,-92060 139861,-137426 46915,-45366 94162,-90290 141742,-134661 47468,-44481 95379,-88519 143401,-132004 48133,-43596 96597,-86639 145283,-129239 48796,-42600 97814,-84757 147053,-126362 49350,-41714 98921,-82876 148713,-123595 49903,-40608 100027,-80885 150483,-120608 50456,-39723 101134,-79004 152143,-117731 51010,-38838 102240,-77012 153803,-114854 51452,-37732 103347,-75020 155352,-111756zm-5575184 11810280l0 0 0 0z"/>
    <path class="fil4" d="M83809326 28775054c3484904,0 6310006,2825102 6310006,6310006 0,3484905 -2825102,6310007 -6310006,6310007 -3484905,0 -6310007,-2825102 -6310007,-6310007 0,-3484904 2825102,-6310006 6310007,-6310006zm0 2473901l2961200 5128934 555682 962539 -1682425 868598 -1834457 -3177299 -1834458 3177299 -1682424 -868598 555681 -962539 2961201 -5128934z"/>
   </g>
  </g>
 </g>
</svg>
